<svg width="60" height="60" viewBox="0 0 60 60" fill="none" xmlns="http://www.w3.org/2000/svg">
<path d="M47.5 12.5H12.5C9.74219 12.5 7.5 14.7422 7.5 17.5V42.5C7.5 45.2578 9.74219 47.5 12.5 47.5H47.5C50.2578 47.5 52.5 45.2578 52.5 42.5V17.5C52.5 14.7422 50.2578 12.5 47.5 12.5ZM50 42.5C50 43.875 48.875 45 47.5 45H12.5C11.125 45 10 43.875 10 42.5V17.5C10 16.125 11.125 15 12.5 15H47.5C48.875 15 50 16.125 50 17.5V42.5ZM44.375 32.5H35.625C35.2812 32.5 35 32.7812 35 33.125V34.375C35 34.7188 35.2812 35 35.625 35H44.375C44.7188 35 45 34.7188 45 34.375V33.125C45 32.7812 44.7188 32.5 44.375 32.5ZM44.375 27.5H35.625C35.2812 27.5 35 27.7812 35 28.125V29.375C35 29.7188 35.2812 30 35.625 30H44.375C44.7188 30 45 29.7188 45 29.375V28.125C45 27.7812 44.7188 27.5 44.375 27.5ZM44.375 22.5H35.625C35.2812 22.5 35 22.7812 35 23.125V24.375C35 24.7188 35.2812 25 35.625 25H44.375C44.7188 25 45 24.7188 45 24.375V23.125C45 22.7812 44.7188 22.5 44.375 22.5ZM23.75 32.5C27.2031 32.5 30 29.7031 30 26.25C30 22.7969 27.2031 20 23.75 20C20.2969 20 17.5 22.7969 17.5 26.25C17.5 29.7031 20.2969 32.5 23.75 32.5ZM23.75 22.5C25.8203 22.5 27.5 24.1797 27.5 26.25C27.5 28.3203 25.8203 30 23.75 30C21.6797 30 20 28.3203 20 26.25C20 24.1797 21.6797 22.5 23.75 22.5ZM27.4062 33.75C25.8828 33.75 25.5 34.2969 23.75 34.2969C22 34.2969 21.6172 33.75 20.0938 33.75C18.4375 33.75 16.8281 34.4844 15.8906 35.8906C15.3281 36.7266 15 37.7344 15 38.8203V40.625C15 40.9688 15.2812 41.25 15.625 41.25H16.875C17.2188 41.25 17.5 40.9688 17.5 40.625V38.8203C17.5 38.2734 17.6641 37.7422 17.9688 37.2891C18.4062 36.6406 19.2031 36.2578 20.1016 36.2578C21.0703 36.2578 21.7266 36.8047 23.7578 36.8047C25.7812 36.8047 26.4375 36.2578 27.4141 36.2578C28.3125 36.2578 29.1094 36.6484 29.5469 37.2891C29.8516 37.7422 30.0156 38.2734 30.0156 38.8203V40.625C30.0156 40.9688 30.2969 41.25 30.6406 41.25H31.8906C32.2344 41.25 32.5156 40.9688 32.5156 40.625V38.8203C32.5156 37.7344 32.1875 36.7266 31.625 35.8906C30.6641 34.4844 29.0547 33.75 27.4062 33.75Z" fill="currentColor"/>
</svg>
