<svg width="24" height="25" viewBox="0 0 24 25" fill="none" xmlns="http://www.w3.org/2000/svg">
<path d="M14.5 5.22168C12.9812 5.22168 11.6062 5.50293 10.6094 5.95293C10.5813 5.96543 9 6.60918 9 7.72168V8.24355C6.37812 8.35293 4 9.32793 4 10.7217V16.7217C4 18.1029 6.4625 19.2217 9.5 19.2217C12.5375 19.2217 15 18.1029 15 16.7217V16.2092C17.8031 16.0936 20 15.0248 20 13.7217V7.72168C20 6.56543 18.0594 5.22168 14.5 5.22168ZM14 16.7217C14 17.1561 12.4219 18.2217 9.5 18.2217C6.57812 18.2217 5 17.1561 5 16.7217V15.1561C5.99375 15.7998 7.6375 16.2217 9.5 16.2217C11.3625 16.2217 13.0063 15.7998 14 15.1561V16.7217ZM14 13.7217C14 14.1561 12.4219 15.2217 9.5 15.2217C6.57812 15.2217 5 14.1561 5 13.7217V12.1561C5.99375 12.7998 7.6375 13.2217 9.5 13.2217C11.3625 13.2217 13.0063 12.7998 14 12.1561V13.7217ZM9.5 12.2217C6.96875 12.2217 4.91562 11.5498 4.91562 10.7217C4.91562 9.89355 6.96875 9.22168 9.5 9.22168C12.0312 9.22168 14.0844 9.89355 14.0844 10.7217C14.0844 11.5498 12.0312 12.2217 9.5 12.2217ZM19 13.7217C19 14.1311 17.5938 15.0842 15 15.1998V13.1967C16.65 13.1279 18.0969 12.7404 19 12.1561V13.7217ZM19 10.7217C19 11.1311 17.5906 12.0779 15 12.1967V10.7217C15 10.5467 14.9469 10.3779 14.8719 10.2123C16.5781 10.1592 18.0719 9.75918 19 9.15605V10.7217ZM14.5 9.22168C14.2719 9.22168 14.0625 9.20605 13.8469 9.19355C12.6938 8.51543 11.1906 8.3123 10.2344 8.25605C10.0375 8.09043 9.91875 7.9123 9.91875 7.72168C9.91875 6.89355 11.9719 6.22168 14.5031 6.22168C17.0344 6.22168 19.0875 6.89355 19.0875 7.72168C19.0875 8.5498 17.0312 9.22168 14.5 9.22168Z" fill="currentColor"/>
</svg>
