<svg width="32" height="32" viewBox="0 0 32 32" fill="none" xmlns="http://www.w3.org/2000/svg">
<path d="M16.0001 6.66675C10.1093 6.66675 5.33347 10.5467 5.33347 15.3334C5.33347 17.3147 6.16097 19.1347 7.53764 20.5947C6.9168 22.2384 5.62389 23.6276 5.60597 23.6459C5.33264 23.9355 5.2568 24.3622 5.41472 24.7284C5.57264 25.0947 5.93305 25.3334 6.33264 25.3334C8.89555 25.3334 10.9168 24.2617 12.1306 23.403C13.3314 23.7834 14.6335 24.0001 16.0001 24.0001C21.891 24.0001 26.6668 20.1201 26.6668 15.3334C26.6668 10.5467 21.891 6.66675 16.0001 6.66675ZM16.0001 22.6667C14.8197 22.6667 13.6535 22.4867 12.5331 22.1317L11.9014 21.9317L11.3601 22.3147C10.401 22.9934 8.92139 23.7872 7.0843 23.9642C7.58389 23.3355 8.3268 22.2792 8.78472 21.0663L9.0793 20.2867L8.50764 19.6805C7.30347 18.403 6.6668 16.9001 6.6668 15.3334C6.6668 11.2897 10.8539 8.00008 16.0001 8.00008C21.1464 8.00008 25.3335 11.2897 25.3335 15.3334C25.3335 19.3772 21.1464 22.6667 16.0001 22.6667ZM17.4143 15.0438L14.9535 14.3413C14.5889 14.2363 14.3335 13.8992 14.3335 13.5205C14.3335 13.0497 14.7164 12.6672 15.1864 12.6672H16.7243C17.0676 12.6672 17.3943 12.7738 17.6672 12.9722C17.7918 13.0626 17.9681 13.033 18.0772 12.9238L18.5531 12.448C18.6989 12.3022 18.6756 12.0638 18.5118 11.9384C18.001 11.5463 17.3793 11.3338 16.7243 11.3338H16.6668V10.3338C16.6668 10.1497 16.5176 10.0005 16.3335 10.0005H15.6668C15.4826 10.0005 15.3335 10.1497 15.3335 10.3338V11.3338H15.1864C13.9118 11.3338 12.8893 12.4297 13.0097 13.7288C13.0956 14.6522 13.8039 15.4005 14.6951 15.6547L17.0468 16.3259C17.4114 16.4309 17.6668 16.768 17.6668 17.1467C17.6668 17.6176 17.2839 18.0001 16.8139 18.0001H15.276C14.9326 18.0001 14.606 17.8934 14.3331 17.6951C14.2085 17.6047 14.0322 17.6342 13.9231 17.7434L13.4472 18.2192C13.3014 18.3651 13.3247 18.603 13.4885 18.7288C13.9993 19.1209 14.621 19.3334 15.276 19.3334H15.3335V20.3334C15.3335 20.5176 15.4826 20.6667 15.6668 20.6667H16.3335C16.5176 20.6667 16.6668 20.5176 16.6668 20.3334V19.3334H16.7235C17.6739 19.3334 18.5706 18.7672 18.8785 17.868C19.3014 16.6326 18.5751 15.3763 17.4143 15.0438Z" fill="currentColor"/>
</svg>
