<svg width="32" height="32" viewBox="0 0 32 32" fill="none" xmlns="http://www.w3.org/2000/svg">
<path d="M17.1287 18.9759L15.2537 18.4134C15.0388 18.3488 14.8883 18.1309 14.8883 17.883C14.8883 17.58 15.1092 17.3334 15.38 17.3334H16.5513C16.7413 17.3334 16.9246 17.3871 17.0854 17.4884C17.2204 17.573 17.3921 17.568 17.5075 17.458L17.9971 16.9909C18.1442 16.8505 18.1358 16.6071 17.9733 16.485C17.5942 16.2005 17.1367 16.0363 16.6663 16.0121V15C16.6663 14.8159 16.5171 14.6667 16.3329 14.6667H15.6663C15.4821 14.6667 15.3329 14.8159 15.3329 15V16.005C14.3488 16.0313 13.555 16.8613 13.555 17.883C13.555 18.715 14.0958 19.4584 14.8708 19.6909L16.7458 20.2534C16.9608 20.318 17.1112 20.5359 17.1112 20.7838C17.1112 21.0867 16.8904 21.3334 16.6196 21.3334H15.4483C15.2583 21.3334 15.075 21.2796 14.9142 21.1784C14.7792 21.0938 14.6075 21.0988 14.4921 21.2088L14.0025 21.6759C13.8554 21.8163 13.8638 22.0596 14.0263 22.1817C14.4054 22.4663 14.8629 22.6305 15.3333 22.6546V23.6667C15.3333 23.8509 15.4825 24 15.6667 24H16.3333C16.5175 24 16.6667 23.8509 16.6667 23.6667V22.6617C17.6508 22.6355 18.4446 21.8059 18.4446 20.7838C18.4446 19.9517 17.9038 19.2084 17.1287 18.9759ZM11 9.33337H15.6667C15.8508 9.33337 16 9.18421 16 9.00004V8.33337C16 8.14921 15.8508 8.00004 15.6667 8.00004H11C10.8158 8.00004 10.6667 8.14921 10.6667 8.33337V9.00004C10.6667 9.18421 10.8158 9.33337 11 9.33337ZM16 11.6667V11C16 10.8159 15.8508 10.6667 15.6667 10.6667H11C10.8158 10.6667 10.6667 10.8159 10.6667 11V11.6667C10.6667 11.8509 10.8158 12 11 12H15.6667C15.8508 12 16 11.8509 16 11.6667ZM23.4125 9.41587L19.9175 5.92087C19.5425 5.54587 19.0342 5.33337 18.5054 5.33337H9.99958C8.89583 5.33754 8 6.23337 8 7.33712V24.6671C8 25.7709 8.89583 26.6667 9.99958 26.6667H22.0004C23.1042 26.6667 24 25.7709 24 24.6671V10.8321C24 10.3034 23.7875 9.79087 23.4125 9.41587ZM18.6679 6.69129C18.7846 6.72046 18.8888 6.77879 18.9762 6.86629L22.4713 10.3613C22.5588 10.4488 22.6171 10.553 22.6463 10.6696H18.6679V6.69129ZM22.6671 24.6671C22.6671 25.0338 22.3671 25.3338 22.0004 25.3338H9.99958C9.63292 25.3338 9.33292 25.0338 9.33292 24.6671V7.33712C9.33292 6.97046 9.63292 6.66671 9.99958 6.66671H17.3346V11.003C17.3346 11.5571 17.7804 12 18.3346 12H22.6671V24.6671Z" fill="currentColor"/>
</svg>
