<svg width="32" height="32" viewBox="0 0 32 32" fill="none" xmlns="http://www.w3.org/2000/svg">
<path d="M23.4125 9.41414L19.9167 5.91831C19.5417 5.54331 19.0333 5.33081 18.5042 5.33081H10C8.89583 5.33498 8 6.23081 8 7.33498V24.6683C8 25.7725 8.89583 26.6683 10 26.6683H22C23.1042 26.6683 24 25.7725 24 24.6683V10.8308C24 10.3016 23.7875 9.78914 23.4125 9.41414ZM22.4708 10.36C22.5583 10.4475 22.6167 10.5516 22.6458 10.6683H18.6667V6.68914C18.7833 6.71831 18.8875 6.77664 18.975 6.86414L22.4708 10.36ZM22 25.335H10C9.63333 25.335 9.33333 25.035 9.33333 24.6683V7.33498C9.33333 6.96831 9.63333 6.66831 10 6.66831H17.3333V11.0016C17.3333 11.5558 17.7792 12.0016 18.3333 12.0016H22.6667V24.6683C22.6667 25.035 22.3667 25.335 22 25.335ZM20 15.1683V15.5016C20 15.7766 19.775 16.0016 19.5 16.0016H12.5C12.225 16.0016 12 15.7766 12 15.5016V15.1683C12 14.8933 12.225 14.6683 12.5 14.6683H19.5C19.775 14.6683 20 14.8933 20 15.1683ZM20 17.835V18.1683C20 18.4433 19.775 18.6683 19.5 18.6683H12.5C12.225 18.6683 12 18.4433 12 18.1683V17.835C12 17.56 12.225 17.335 12.5 17.335H19.5C19.775 17.335 20 17.56 20 17.835ZM20 20.5016V20.835C20 21.11 19.775 21.335 19.5 21.335H12.5C12.225 21.335 12 21.11 12 20.835V20.5016C12 20.2266 12.225 20.0016 12.5 20.0016H19.5C19.775 20.0016 20 20.2266 20 20.5016Z" fill="currentColor"/>
</svg>
