<svg width="32" height="32" viewBox="0 0 32 32" fill="none" xmlns="http://www.w3.org/2000/svg">
<path d="M13.6667 18.6666H13C12.8167 18.6666 12.6667 18.8166 12.6667 18.9999V22.9999C12.6667 23.1833 12.8167 23.3333 13 23.3333H13.6667C13.85 23.3333 14 23.1833 14 22.9999V18.9999C14 18.8166 13.85 18.6666 13.6667 18.6666ZM16.3333 14.6666H15.6667C15.4833 14.6666 15.3333 14.8166 15.3333 14.9999V22.9999C15.3333 23.1833 15.4833 23.3333 15.6667 23.3333H16.3333C16.5167 23.3333 16.6667 23.1833 16.6667 22.9999V14.9999C16.6667 14.8166 16.5167 14.6666 16.3333 14.6666ZM18 17.6666V22.9999C18 23.1833 18.15 23.3333 18.3333 23.3333H19C19.1833 23.3333 19.3333 23.1833 19.3333 22.9999V17.6666C19.3333 17.4833 19.1833 17.3333 19 17.3333H18.3333C18.15 17.3333 18 17.4833 18 17.6666ZM23.4125 9.41575L19.9175 5.92075C19.5425 5.54575 19.0342 5.33325 18.5054 5.33325H9.99958C8.89583 5.33742 8 6.23325 8 7.337V24.667C8 25.7708 8.89583 26.6666 9.99958 26.6666H22.0004C23.1042 26.6666 24 25.7708 24 24.667V10.832C24 10.3033 23.7875 9.79075 23.4125 9.41575ZM18.6679 6.69117C18.7846 6.72034 18.8888 6.77867 18.9762 6.86617L22.4713 10.3612C22.5588 10.4487 22.6171 10.5528 22.6463 10.6695H18.6679V6.69117ZM22.6671 24.667C22.6671 25.0337 22.3671 25.3337 22.0004 25.3337H9.99958C9.63292 25.3337 9.33292 25.0337 9.33292 24.667V7.337C9.33292 6.97034 9.63292 6.66659 9.99958 6.66659H17.3346V11.0028C17.3346 11.557 17.7804 11.9999 18.3346 11.9999H22.6671V24.667Z" fill="currentColor"/>
</svg>
