<svg width="32" height="32" viewBox="0 0 32 32" fill="none" xmlns="http://www.w3.org/2000/svg">
<path d="M19.3333 20.6944V13.9999C19.3333 13.3543 19.0258 12.7791 18.5495 12.4132C19.4351 11.6789 20 10.5708 20 9.33325C20 7.12763 18.2056 5.33325 16 5.33325C13.7944 5.33325 12 7.12763 12 9.33325C12 10.3568 12.3864 11.2918 13.021 11.9999H13C11.8972 11.9999 11 12.8971 11 13.9999V15.9999C11 16.9892 11.722 17.813 12.6667 17.9721V20.6943C11.722 20.8535 11 21.6773 11 22.6666V24.6666C11 25.7694 11.8972 26.6666 13 26.6666H19C20.1028 26.6666 21 25.7694 21 24.6666V22.6666C21 21.6773 20.278 20.8535 19.3333 20.6944ZM16 6.66659C17.4728 6.66659 18.6667 7.8605 18.6667 9.33325C18.6667 10.806 17.4728 11.9999 16 11.9999C14.5273 11.9999 13.3333 10.806 13.3333 9.33325C13.3333 7.8605 14.5273 6.66659 16 6.66659ZM19.6667 24.6666C19.6667 25.0348 19.3682 25.3333 19 25.3333H13C12.6318 25.3333 12.3333 25.0348 12.3333 24.6666V22.6666C12.3333 22.2984 12.6318 21.9999 13 21.9999H14V16.6666H13C12.6318 16.6666 12.3333 16.3681 12.3333 15.9999V13.9999C12.3333 13.6317 12.6318 13.3333 13 13.3333H17.3333C17.7015 13.3333 18 13.6317 18 13.9999V21.9999H19C19.3682 21.9999 19.6667 22.2984 19.6667 22.6666V24.6666Z" fill="currentColor"/>
</svg>
