<svg width="32" height="32" viewBox="0 0 32 32" fill="none" xmlns="http://www.w3.org/2000/svg">
<path d="M19.2875 10.4013L21.1092 7.40587C21.6992 6.51962 21.0642 5.33337 20.0004 5.33337H12.0067C10.9417 5.33337 10.3067 6.52087 10.8979 7.40671L12.7134 10.4017C4.94752 15.358 5.3371 21.6817 5.3371 22.5C5.3371 24.8013 7.38335 26.6667 9.9071 26.6667H22.0946C24.6188 26.6667 26.6646 24.8013 26.6646 22.5C26.6646 21.6967 27.0096 15.3334 19.2875 10.4013ZM12.0067 6.66671H20.0004L17.9534 10H14.0479L12.0067 6.66671ZM25.3338 22.5C25.3338 24.0621 23.8817 25.3334 22.0967 25.3334H9.9071C8.1221 25.3334 6.67002 24.0621 6.67002 22.5V22.36C6.63127 19.8659 7.50335 15.1517 13.7079 11.3334H18.2954C24.4854 15.1442 25.3654 19.8725 25.3338 22.375V22.5ZM17.2342 18.2809L15.1925 17.675C14.9567 17.6075 14.7938 17.3742 14.7938 17.105C14.7938 16.7775 15.0338 16.513 15.3288 16.513H16.6025C16.8076 16.5141 17.0085 16.5718 17.1829 16.6796C17.2518 16.7265 17.3344 16.749 17.4175 16.7433C17.5006 16.7376 17.5794 16.7042 17.6413 16.6484L18.1717 16.1413C18.2093 16.106 18.2388 16.0629 18.258 16.015C18.2773 15.9672 18.286 15.9157 18.2834 15.8642C18.2808 15.8127 18.2671 15.7623 18.2431 15.7166C18.2192 15.6709 18.1855 15.631 18.1446 15.5996C17.7299 15.2949 17.2348 15.1186 16.7209 15.0925V14.3592C16.7202 14.2636 16.6817 14.1721 16.6137 14.1048C16.5458 14.0375 16.454 13.9998 16.3584 14H15.6338C15.5381 13.9998 15.4462 14.0375 15.3782 14.1048C15.3102 14.1721 15.2716 14.2635 15.2709 14.3592V15.0859C14.1963 15.1171 13.335 16.0105 13.335 17.1096C13.335 18.0071 13.9242 18.8059 14.7675 19.0571L16.8092 19.663C17.045 19.73 17.2084 19.9634 17.2084 20.2325C17.2084 20.5605 16.9679 20.825 16.6734 20.825H15.3979C15.1928 20.824 14.9919 20.7663 14.8175 20.6584C14.7486 20.6115 14.666 20.5892 14.5829 20.5949C14.4998 20.6006 14.421 20.6342 14.3592 20.69L13.8242 21.1925C13.7867 21.2279 13.7572 21.271 13.738 21.3188C13.7187 21.3667 13.7101 21.4181 13.7127 21.4696C13.7152 21.5211 13.729 21.5715 13.7529 21.6171C13.7768 21.6628 13.8104 21.7028 13.8513 21.7342C14.2661 22.0387 14.7611 22.215 15.275 22.2413V22.9725C15.2758 23.0682 15.3144 23.1597 15.3824 23.227C15.4504 23.2943 15.5423 23.3319 15.6379 23.3317H16.3634C16.459 23.3318 16.5507 23.2941 16.6186 23.2268C16.6865 23.1595 16.7251 23.0681 16.7259 22.9725V22.25C17.7959 22.2234 18.6617 21.3259 18.6663 20.2267C18.6671 19.3309 18.0775 18.5321 17.2342 18.2809Z" fill="currentColor"/>
</svg>
