<svg width="32" height="32" viewBox="0 0 32 32" fill="none" xmlns="http://www.w3.org/2000/svg">
<path d="M28 5.33325H10.6667C9.93044 5.33325 9.33335 5.93034 9.33335 6.66659V10.6666C7.12419 10.6666 5.33335 12.4574 5.33335 14.6666C5.33335 16.8758 7.12419 18.6666 9.33335 18.6666C11.5425 18.6666 13.3334 16.8758 13.3334 14.6666C13.3334 12.9274 12.2167 11.4624 10.6667 10.9116V6.66659H28V21.3333H15.3892C15.3646 21.2941 15.3463 21.2516 15.3204 21.2133C14.6017 20.1458 13.3759 19.5837 12.1163 19.5837C10.9584 19.5841 10.6675 19.9999 9.33335 19.9999C8.00127 19.9999 7.71044 19.5841 6.55044 19.5841C5.29085 19.5841 4.06502 20.1458 3.34627 21.2137C2.9171 21.8508 2.66669 22.6183 2.66669 23.4445V24.9999C2.66669 25.9203 3.41294 26.6666 4.33335 26.6666H14.3334C15.2538 26.6666 16 25.9203 16 24.9999V23.4445C16 23.1774 15.965 22.9195 15.915 22.6666H28C28.7363 22.6666 29.3334 22.0695 29.3334 21.3333V6.66659C29.3334 5.93034 28.7363 5.33325 28 5.33325ZM12 14.6666C12 16.137 10.8038 17.3333 9.33335 17.3333C7.86294 17.3333 6.66669 16.137 6.66669 14.6666C6.66669 13.1962 7.86294 11.9999 9.33335 11.9999C10.8038 11.9999 12 13.1962 12 14.6666ZM14.6667 24.9999C14.6667 25.1837 14.5171 25.3333 14.3334 25.3333H4.33335C4.1496 25.3333 4.00002 25.1837 4.00002 24.9999V23.4445C4.00002 22.9116 4.15627 22.3974 4.4521 21.9583C4.89085 21.3066 5.67502 20.9174 6.55044 20.9174C7.45877 20.9174 7.80002 21.3333 9.33335 21.3333C10.8663 21.3333 11.2088 20.9174 12.1163 20.9174C12.9913 20.9174 13.7759 21.3066 14.2146 21.9583C14.5104 22.3974 14.6667 22.9116 14.6667 23.4445V24.9999ZM16.7759 11.6953C16.385 11.3045 15.7525 11.3045 15.3617 11.6953L14.2996 12.7574C14.4896 13.2458 14.6038 13.7645 14.6417 14.3008L16.0688 12.8737L18.6954 15.4999C18.8909 15.6953 19.1459 15.7924 19.4025 15.7924C19.6592 15.7924 19.9142 15.6953 20.1096 15.4999L22.5667 13.0428L23.9517 14.4278C24.1167 14.5928 24.3192 14.6666 24.5184 14.6666C24.9346 14.6666 25.3338 14.3433 25.3338 13.8553V9.87283C25.3338 9.57492 25.0921 9.33325 24.7942 9.33325H20.8117C20.0904 9.33325 19.7292 10.2053 20.2392 10.7153L21.6242 12.1003L19.4029 14.3216L16.7759 11.6953ZM24 10.6666V12.5908L22.0759 10.6666H24Z" fill="currentColor"/>
</svg>
