<svg width="150" height="150" viewBox="0 0 150 150" fill="none" xmlns="http://www.w3.org/2000/svg">
<path d="M53.3124 65.9152C52.8072 64.6791 52.1102 63.5813 51.2406 62.6543C50.3711 61.7272 49.3414 60.9841 48.182 60.4455C47.0157 59.9054 45.7708 59.6317 44.4803 59.6317C43.1138 59.6317 41.8288 59.9202 40.6612 60.4882C39.5018 61.0532 38.4832 61.8243 37.6371 62.7808C36.7937 63.7329 36.123 64.8351 35.6454 66.0565C35.1651 67.2837 34.9208 68.564 34.9208 69.8619C34.9208 71.2657 35.1775 72.6004 35.6854 73.8291C36.1878 75.049 36.8779 76.138 37.7351 77.065C38.595 77.995 39.6191 78.7396 40.7785 79.2767C41.9434 79.8168 43.1884 80.0905 44.4803 80.0905C44.9316 80.0905 45.3871 80.0567 45.8315 79.989C46.2746 79.9213 46.7176 79.8197 47.1482 79.6844L47.8853 79.4533L47.503 78.7426C47.4298 78.6057 47.405 78.516 47.3967 78.4645L47.3829 78.3762L47.347 78.2952C47.1924 77.9421 47.071 77.6124 46.9854 77.3152L46.8197 76.7383L46.269 76.8737C45.975 76.9458 45.6728 77.0062 45.3705 77.0547C45.0834 77.1003 44.7839 77.1239 44.4789 77.1239C43.5458 77.1239 42.6625 76.9311 41.8523 76.5515C41.0324 76.1674 40.3092 75.6435 39.7005 74.9931C39.0918 74.3456 38.6019 73.5687 38.2416 72.6828C37.8841 71.8058 37.7033 70.8566 37.7033 69.8604C37.7033 68.8656 37.8841 67.9238 38.2402 67.06C38.6019 66.1845 39.0946 65.406 39.7047 64.7424C40.312 64.0831 41.0352 63.5534 41.8523 63.1708C42.6625 62.7911 43.5458 62.5983 44.4789 62.5983C45.4133 62.5983 46.3035 62.7911 47.1262 63.1722C47.9529 63.5548 48.6803 64.0831 49.289 64.7438C49.899 65.4075 50.3918 66.1918 50.752 67.0777C51.1095 67.9547 51.2903 68.8921 51.2903 69.8619V80.0155H54.0729V69.8619C54.077 68.486 53.8203 67.1586 53.3124 65.9152Z" fill="#464646"/>
<path d="M90.413 69.1761V69.8236C90.413 70.8199 90.2322 71.769 89.8748 72.646C89.5159 73.529 89.0245 74.3074 88.4158 74.9563C87.8072 75.6053 87.0784 76.1292 86.2489 76.5118C85.4263 76.8929 84.5346 77.0857 83.6016 77.0857C83.4539 77.0857 83.3159 77.0812 83.1875 77.0695C83.0564 77.0577 82.9142 77.04 82.7528 77.0165C81.9274 76.9002 81.1475 76.631 80.4312 76.216C79.7107 75.7966 79.0744 75.261 78.5431 74.6223C78.0103 73.9851 77.5852 73.2494 77.2801 72.4356C76.9779 71.6307 76.8247 70.7522 76.8247 69.8236C76.8247 68.8289 77.0055 67.8871 77.3616 67.0233C77.7218 66.1492 78.2146 65.3693 78.826 64.7056C79.4333 64.0464 80.1565 63.5166 80.9736 63.134C81.7838 62.7544 82.6672 62.5616 83.6002 62.5616C84.5346 62.5616 85.4207 62.7485 86.2337 63.1178C86.8631 63.4048 87.4442 63.7859 87.9673 64.2539L81.2676 71.3967L85.1323 71.4644L91.9133 64.2347L90.3785 62.5984C89.4938 61.6566 88.4572 60.912 87.2965 60.3881C86.1316 59.8628 84.888 59.595 83.6002 59.595C82.3097 59.595 81.0716 59.8628 79.9191 60.3881C78.7749 60.9105 77.7342 61.6522 76.8164 62.6043C75.9344 63.5711 75.2443 64.6821 74.7654 65.9049C74.285 67.1322 74.0407 68.4507 74.0407 69.8236C74.0407 71.0921 74.2588 72.3238 74.6895 73.4833C75.1173 74.6385 75.7122 75.6818 76.4575 76.5824C77.2015 77.4844 78.0903 78.2408 79.0993 78.8324C80.1124 79.4269 81.229 79.8109 82.4187 79.9728C82.6203 79.9993 82.8163 80.0199 83.0081 80.0331C83.1986 80.0464 83.3959 80.0537 83.6002 80.0537C84.888 80.0537 86.1302 79.7948 87.291 79.2827C88.4559 78.7706 89.4966 78.0171 90.3771 77.0503C91.2853 76.0821 91.9893 74.9696 92.4696 73.7423C92.9499 72.5136 93.1942 71.1966 93.1942 69.8236V69.1761H90.413Z" fill="#464646"/>
<path d="M136.239 65.9152C135.734 64.6791 135.037 63.5813 134.168 62.6543C133.298 61.7272 132.27 60.9841 131.109 60.4455C129.943 59.9054 128.698 59.6317 127.407 59.6317C126.041 59.6317 124.756 59.9202 123.588 60.4882C122.429 61.0518 121.41 61.8243 120.563 62.7808C119.719 63.7344 119.049 64.8351 118.571 66.0565C118.091 67.2837 117.846 68.564 117.846 69.8619C117.846 71.2657 118.103 72.6004 118.611 73.8291C119.114 75.049 119.804 76.138 120.661 77.065C121.521 77.995 122.545 78.7396 123.704 79.2767C124.869 79.8168 126.114 80.0905 127.406 80.0905C127.857 80.0905 128.313 80.0567 128.757 79.989C129.2 79.9213 129.643 79.8197 130.074 79.6844L130.812 79.4519L130.429 78.7411C130.356 78.6057 130.331 78.516 130.322 78.4645L130.309 78.3762L130.273 78.2952C130.118 77.9421 129.997 77.6124 129.911 77.3152L129.745 76.7383L129.195 76.8737C128.899 76.9458 128.597 77.0076 128.296 77.0547C128.009 77.1003 127.708 77.1239 127.405 77.1239C126.472 77.1239 125.588 76.9311 124.778 76.5515C123.958 76.1674 123.235 75.6435 122.626 74.9931C122.018 74.3456 121.526 73.5687 121.167 72.6828C120.81 71.8058 120.629 70.8566 120.629 69.8604C120.629 68.8656 120.81 67.9238 121.166 67.06C121.526 66.186 122.019 65.406 122.63 64.7438C123.238 64.0846 123.961 63.5548 124.778 63.1722C125.588 62.7926 126.472 62.5998 127.405 62.5998C128.338 62.5998 129.229 62.7926 130.052 63.1737C130.879 63.5563 131.607 64.0861 132.215 64.7453C132.825 65.4075 133.317 66.1933 133.678 67.0777C134.035 67.9547 134.216 68.8921 134.216 69.8619V80.0155H137V69.8619C137.003 68.486 136.746 67.1586 136.239 65.9152Z" fill="#464646"/>
<path d="M22.8438 59.7087H13V79.9776H15.7315V62.6209H22.8438C26.4918 62.6209 29.4593 65.7847 29.4593 69.674V79.9791H32.1907V69.674C32.1907 64.1792 27.9976 59.7087 22.8438 59.7087Z" fill="#464646"/>
<path d="M71.2181 59.7088L65.054 76.1782C64.8276 76.7815 64.4384 77.1421 64.0133 77.1421C63.5868 77.1421 63.1975 76.7801 62.9712 76.1753L56.8264 59.7088H53.8865L60.4329 77.2509C61.0775 78.98 62.4495 80.0542 64.0133 80.0542C65.5729 80.0542 66.9435 78.983 67.5908 77.2583L74.1704 59.7073H71.2181V59.7088Z" fill="#464646"/>
<path d="M106.168 87.4941C102.383 87.4941 99.3039 84.2111 99.3039 80.1761V79.5286H96.5724V80.1761C96.5724 85.8165 100.877 90.4062 106.168 90.4062C106.208 90.4062 106.246 90.4033 106.285 90.4033V87.4911C106.246 87.4911 106.208 87.4941 106.168 87.4941Z" fill="#1AAAB2"/>
<path d="M112.475 80.0598C112.475 80.0981 112.475 80.1364 112.475 80.1746C112.475 84.1669 109.459 87.4219 105.728 87.4896V90.4018C110.965 90.3341 115.206 85.7738 115.206 80.1746C115.206 80.1319 115.203 80.0907 115.202 80.0495H112.475V80.0598Z" fill="url(#paint0_linear_2_228)"/>
<path d="M115.205 69.8239C115.205 68.061 114.784 66.4011 114.045 64.9516C112.418 61.7628 109.248 59.5938 105.609 59.5938C101.972 59.5938 98.8005 61.7628 97.1733 64.9516C96.4334 66.4011 96.0139 68.061 96.0139 69.8239C96.0139 70.0314 96.0221 70.2388 96.0332 70.4434C96.0359 70.5023 96.0415 70.5611 96.0456 70.62C96.0566 70.7774 96.0718 70.9334 96.0898 71.0894C96.0953 71.1409 96.1008 71.1939 96.1077 71.2454C96.1339 71.4455 96.1643 71.6427 96.2016 71.8384C96.2085 71.8723 96.2154 71.9046 96.2223 71.9385C96.2554 72.1033 96.2913 72.2666 96.3313 72.427C96.3451 72.4829 96.3603 72.5403 96.3741 72.5963C96.4155 72.7522 96.4597 72.9067 96.508 73.0613C96.519 73.098 96.5301 73.1348 96.5411 73.1716C96.6018 73.357 96.6667 73.541 96.7371 73.7205C96.7537 73.7647 96.773 73.8073 96.7909 73.8515C96.8475 73.9927 96.9069 74.1311 96.9704 74.2694C96.9938 74.3194 97.0159 74.3709 97.0394 74.421C97.1167 74.5843 97.1981 74.7462 97.2823 74.9051C97.2878 74.9154 97.2933 74.9272 97.2988 74.9375C97.3899 75.1052 97.4866 75.27 97.5873 75.4319C97.6163 75.4775 97.6453 75.5231 97.6743 75.5688C97.7516 75.6909 97.833 75.8101 97.9158 75.9293C97.9462 75.972 97.9752 76.0161 98.0055 76.0573C98.1146 76.2089 98.2277 76.3575 98.3451 76.5017C98.3644 76.5267 98.3851 76.5488 98.4058 76.5738C98.5052 76.6945 98.6087 76.8137 98.7136 76.9299C98.7536 76.9741 98.795 77.0182 98.8364 77.0624C98.933 77.1654 99.0324 77.2654 99.1318 77.364C99.1663 77.3979 99.2008 77.4332 99.2367 77.467C99.3678 77.5906 99.5017 77.7113 99.6383 77.8276C99.6797 77.8629 99.7225 77.8967 99.7653 77.9306C99.8675 78.0144 99.971 78.0969 100.076 78.1763C100.128 78.216 100.182 78.2558 100.235 78.294C100.348 78.3764 100.464 78.4559 100.581 78.5324C101.883 79.3889 103.387 79.926 105.001 80.0334V80.0466H105.257C105.315 80.0496 105.375 80.0496 105.433 80.0511C105.491 80.0525 105.548 80.0555 105.608 80.0555C105.667 80.0555 105.725 80.0525 105.783 80.0511C105.841 80.0496 105.9 80.0481 105.958 80.0466H106.215V80.0334C107.829 79.926 109.333 79.3889 110.635 78.5324C110.752 78.4559 110.868 78.3764 110.981 78.294C111.035 78.2558 111.087 78.216 111.14 78.1763C111.245 78.0969 111.348 78.0144 111.45 77.9306C111.493 77.8953 111.536 77.8629 111.577 77.8276C111.714 77.7113 111.849 77.5906 111.979 77.467C112.015 77.4332 112.048 77.3979 112.084 77.364C112.185 77.2654 112.283 77.1654 112.379 77.0624C112.41 77.03 112.44 76.9961 112.47 76.9638V79.5316V80.0525H115.198H115.202V69.8239H115.205ZM112.441 70.5376C112.441 70.542 112.441 70.5479 112.44 70.5523C112.419 70.7818 112.386 71.0085 112.346 71.2307C112.345 71.241 112.343 71.2513 112.341 71.2601C112.299 71.4779 112.248 71.6927 112.19 71.9032C112.186 71.9164 112.183 71.9311 112.179 71.9444C112.121 72.1504 112.054 72.3505 111.978 72.5492C111.971 72.5668 111.965 72.5859 111.958 72.6036C111.884 72.7949 111.801 72.9833 111.713 73.1657C111.702 73.1878 111.692 73.2099 111.681 73.232C111.593 73.41 111.497 73.5822 111.395 73.7514C111.38 73.7764 111.366 73.8014 111.351 73.8265C111.25 73.9898 111.143 74.1473 111.031 74.3003C111.01 74.3282 110.991 74.3562 110.97 74.3842C110.86 74.5313 110.742 74.6741 110.621 74.8124C110.595 74.8418 110.57 74.8712 110.544 74.9007C110.423 75.0331 110.298 75.1597 110.17 75.2818C110.138 75.3127 110.106 75.3436 110.074 75.373C109.946 75.4893 109.815 75.6011 109.678 75.7071C109.641 75.7365 109.602 75.7674 109.565 75.7954C109.43 75.8969 109.292 75.9926 109.15 76.0838C109.105 76.1118 109.063 76.1397 109.018 76.1677C108.878 76.2545 108.733 76.334 108.586 76.4105C108.538 76.4355 108.488 76.4605 108.44 76.4841C108.294 76.5547 108.145 76.6194 107.993 76.6798C107.94 76.7004 107.887 76.721 107.833 76.7416C107.681 76.7975 107.526 76.846 107.369 76.8917C107.312 76.9079 107.256 76.9226 107.199 76.9373C107.042 76.977 106.882 77.0109 106.72 77.0388C106.662 77.0491 106.603 77.058 106.545 77.0668C106.381 77.0903 106.217 77.108 106.05 77.1198C106.019 77.1212 105.992 77.1271 105.961 77.1286H105.874C105.845 77.1301 105.815 77.133 105.786 77.133C105.728 77.1315 105.67 77.1286 105.611 77.1286C105.551 77.1286 105.493 77.1315 105.435 77.133C105.406 77.1315 105.376 77.1301 105.347 77.1286H105.26C105.23 77.1271 105.202 77.1212 105.172 77.1198C105.005 77.108 104.839 77.0903 104.676 77.0668C104.617 77.058 104.559 77.0491 104.501 77.0388C104.339 77.0109 104.179 76.977 104.022 76.9373C103.965 76.9226 103.909 76.9079 103.852 76.8917C103.695 76.8475 103.54 76.7975 103.388 76.7416C103.335 76.7224 103.282 76.7018 103.228 76.6798C103.076 76.6194 102.927 76.5547 102.781 76.4841C102.731 76.4605 102.683 76.4355 102.635 76.4105C102.489 76.3354 102.344 76.2545 102.203 76.1677C102.159 76.1412 102.116 76.1118 102.072 76.0838C101.93 75.9926 101.792 75.8969 101.656 75.7954C101.618 75.7659 101.58 75.7365 101.543 75.7071C101.408 75.5997 101.275 75.4893 101.147 75.373C101.114 75.3436 101.083 75.3127 101.052 75.2818C100.923 75.1597 100.798 75.0331 100.678 74.9007C100.651 74.8712 100.627 74.8418 100.6 74.8124C100.479 74.6741 100.362 74.5313 100.251 74.3842C100.23 74.3562 100.211 74.3282 100.19 74.3003C100.079 74.1473 99.971 73.9883 99.8702 73.8265C99.855 73.8014 99.8412 73.7764 99.8261 73.7514C99.7253 73.5822 99.6287 73.41 99.5403 73.232C99.5293 73.2099 99.5196 73.1878 99.5086 73.1657C99.4203 72.9818 99.3374 72.7949 99.2629 72.6036C99.256 72.5859 99.2505 72.5668 99.2436 72.5492C99.1691 72.352 99.1014 72.1504 99.0421 71.9444C99.0379 71.9311 99.0352 71.9164 99.031 71.9032C98.9717 71.6927 98.922 71.4779 98.8806 71.2601C98.8792 71.2498 98.8778 71.241 98.8751 71.2307C98.8337 71.0085 98.8019 70.7818 98.7812 70.5523C98.7812 70.5479 98.7812 70.542 98.7798 70.5376C98.7578 70.3021 98.7467 70.0652 98.7467 69.8239C98.7467 69.4457 98.7743 69.0734 98.8254 68.7114C99.3292 65.2018 102.179 62.5059 105.611 62.5059C109.04 62.5059 111.891 65.2018 112.396 68.7114C112.448 69.0749 112.474 69.4457 112.474 69.8239C112.474 70.0652 112.462 70.3021 112.441 70.5376Z" fill="#464646"/>
<defs>
<linearGradient id="paint0_linear_2_228" x1="110.466" y1="90.402" x2="110.466" y2="79.5281" gradientUnits="userSpaceOnUse">
<stop offset="0.25" stop-color="#1AAAB2"/>
<stop offset="0.95" stop-color="#484848"/>
</linearGradient>
</defs>
</svg>
